<svg id="visual" viewBox="0 0 900 600" width="900" height="600" xmlns="http://www.w3.org/2000/svg" xmlns:xlink="http://www.w3.org/1999/xlink" version="1.1"><g stroke-width="1" stroke-linejoin="bevel"><path d="M414 328L321 317L364 389Z" fill="#ff3d00" stroke="#ff3d00"></path><path d="M321 317L296 370L364 389Z" fill="#ff3d00" stroke="#ff3d00"></path><path d="M411 535L471 420L364 389Z" fill="#00101c" stroke="#00101c"></path><path d="M364 389L471 420L414 328Z" fill="#7b2b6f" stroke="#7b2b6f"></path><path d="M176 339L233 395L296 370Z" fill="#7b2b6f" stroke="#7b2b6f"></path><path d="M296 370L276 506L364 389Z" fill="#c02166" stroke="#c02166"></path><path d="M471 420L502 292L414 328Z" fill="#f23b41" stroke="#f23b41"></path><path d="M410 179L261 236L321 317Z" fill="#9f266e" stroke="#9f266e"></path><path d="M410 179L321 317L414 328Z" fill="#c02166" stroke="#c02166"></path><path d="M321 317L176 339L296 370Z" fill="#572d68" stroke="#572d68"></path><path d="M480 214L410 179L414 328Z" fill="#7b2b6f" stroke="#7b2b6f"></path><path d="M502 292L480 214L414 328Z" fill="#362a5b" stroke="#362a5b"></path><path d="M233 395L276 506L296 370Z" fill="#362a5b" stroke="#362a5b"></path><path d="M261 236L176 339L321 317Z" fill="#00101c" stroke="#00101c"></path><path d="M233 395L169 526L276 506Z" fill="#ff3d00" stroke="#ff3d00"></path><path d="M276 506L411 535L364 389Z" fill="#c02166" stroke="#c02166"></path><path d="M261 236L193 231L176 339Z" fill="#ff5722" stroke="#ff5722"></path><path d="M232 96L193 231L261 236Z" fill="#1a2448" stroke="#1a2448"></path><path d="M410 179L303 129L261 236Z" fill="#00101c" stroke="#00101c"></path><path d="M411 535L529 522L471 420Z" fill="#ff5722" stroke="#ff5722"></path><path d="M637 360L621 263L502 292Z" fill="#9f266e" stroke="#9f266e"></path><path d="M95 230L114 268L193 231Z" fill="#1a2448" stroke="#1a2448"></path><path d="M193 231L114 268L176 339Z" fill="#572d68" stroke="#572d68"></path><path d="M111 460L169 526L233 395Z" fill="#081b32" stroke="#081b32"></path><path d="M335 600L390 600L411 535Z" fill="#f23b41" stroke="#f23b41"></path><path d="M411 535L534 600L529 522Z" fill="#362a5b" stroke="#362a5b"></path><path d="M276 506L335 600L411 535Z" fill="#f23b41" stroke="#f23b41"></path><path d="M206 600L335 600L276 506Z" fill="#9f266e" stroke="#9f266e"></path><path d="M637 360L502 292L471 420Z" fill="#ff3d00" stroke="#ff3d00"></path><path d="M502 292L622 216L480 214Z" fill="#081b32" stroke="#081b32"></path><path d="M508 98L397 68L410 179Z" fill="#00101c" stroke="#00101c"></path><path d="M410 179L397 68L303 129Z" fill="#9f266e" stroke="#9f266e"></path><path d="M111 460L233 395L176 339Z" fill="#7b2b6f" stroke="#7b2b6f"></path><path d="M582 505L637 360L471 420Z" fill="#1a2448" stroke="#1a2448"></path><path d="M596 600L582 505L529 522Z" fill="#ff5722" stroke="#ff5722"></path><path d="M529 522L582 505L471 420Z" fill="#ff3d00" stroke="#ff3d00"></path><path d="M508 98L410 179L480 214Z" fill="#362a5b" stroke="#362a5b"></path><path d="M280 0L232 96L303 129Z" fill="#c02166" stroke="#c02166"></path><path d="M303 129L232 96L261 236Z" fill="#7b2b6f" stroke="#7b2b6f"></path><path d="M622 216L508 98L480 214Z" fill="#f23b41" stroke="#f23b41"></path><path d="M78 428L111 460L176 339Z" fill="#9f266e" stroke="#9f266e"></path><path d="M717 223L622 216L621 263Z" fill="#ff3d00" stroke="#ff3d00"></path><path d="M621 263L622 216L502 292Z" fill="#ff5722" stroke="#ff5722"></path><path d="M132 97L95 230L193 231Z" fill="#ff3d00" stroke="#ff3d00"></path><path d="M114 268L78 428L176 339Z" fill="#ff3d00" stroke="#ff3d00"></path><path d="M0 317L78 428L114 268Z" fill="#362a5b" stroke="#362a5b"></path><path d="M132 600L206 600L169 526Z" fill="#1a2448" stroke="#1a2448"></path><path d="M132 600L169 526L111 460Z" fill="#1a2448" stroke="#1a2448"></path><path d="M169 526L206 600L276 506Z" fill="#7b2b6f" stroke="#7b2b6f"></path><path d="M390 600L534 600L411 535Z" fill="#00101c" stroke="#00101c"></path><path d="M733 407L682 298L637 360Z" fill="#081b32" stroke="#081b32"></path><path d="M637 360L682 298L621 263Z" fill="#362a5b" stroke="#362a5b"></path><path d="M223 0L132 97L232 96Z" fill="#572d68" stroke="#572d68"></path><path d="M232 96L132 97L193 231Z" fill="#7b2b6f" stroke="#7b2b6f"></path><path d="M666 97L600 97L622 216Z" fill="#081b32" stroke="#081b32"></path><path d="M622 216L600 97L508 98Z" fill="#ff3d00" stroke="#ff3d00"></path><path d="M487 0L431 0L397 68Z" fill="#362a5b" stroke="#362a5b"></path><path d="M487 0L397 68L508 98Z" fill="#1a2448" stroke="#1a2448"></path><path d="M397 68L280 0L303 129Z" fill="#c02166" stroke="#c02166"></path><path d="M534 600L596 600L529 522Z" fill="#ff3d00" stroke="#ff3d00"></path><path d="M716 469L733 407L637 360Z" fill="#ff3d00" stroke="#ff3d00"></path><path d="M431 0L280 0L397 68Z" fill="#ff3d00" stroke="#ff3d00"></path><path d="M0 507L132 600L111 460Z" fill="#f23b41" stroke="#f23b41"></path><path d="M610 0L487 0L508 98Z" fill="#1a2448" stroke="#1a2448"></path><path d="M0 209L0 317L95 230Z" fill="#c02166" stroke="#c02166"></path><path d="M95 230L0 317L114 268Z" fill="#ff3d00" stroke="#ff3d00"></path><path d="M78 428L0 507L111 460Z" fill="#572d68" stroke="#572d68"></path><path d="M280 0L223 0L232 96Z" fill="#9f266e" stroke="#9f266e"></path><path d="M682 298L717 223L621 263Z" fill="#f23b41" stroke="#f23b41"></path><path d="M782 199L717 223L825 294Z" fill="#ff3d00" stroke="#ff3d00"></path><path d="M0 317L0 415L78 428Z" fill="#c02166" stroke="#c02166"></path><path d="M716 469L637 360L582 505Z" fill="#7b2b6f" stroke="#7b2b6f"></path><path d="M596 600L716 469L582 505Z" fill="#f23b41" stroke="#f23b41"></path><path d="M717 223L666 97L622 216Z" fill="#081b32" stroke="#081b32"></path><path d="M600 97L610 0L508 98Z" fill="#572d68" stroke="#572d68"></path><path d="M0 122L0 209L95 230Z" fill="#c02166" stroke="#c02166"></path><path d="M0 122L95 230L132 97Z" fill="#ff3d00" stroke="#ff3d00"></path><path d="M0 415L0 507L78 428Z" fill="#ff5722" stroke="#ff5722"></path><path d="M666 97L610 0L600 97Z" fill="#ff5722" stroke="#ff5722"></path><path d="M91 0L0 122L132 97Z" fill="#1a2448" stroke="#1a2448"></path><path d="M716 469L795 399L733 407Z" fill="#9f266e" stroke="#9f266e"></path><path d="M733 407L825 294L682 298Z" fill="#c02166" stroke="#c02166"></path><path d="M717 223L782 199L666 97Z" fill="#572d68" stroke="#572d68"></path><path d="M768 528L795 399L716 469Z" fill="#081b32" stroke="#081b32"></path><path d="M223 0L91 0L132 97Z" fill="#9f266e" stroke="#9f266e"></path><path d="M825 294L717 223L682 298Z" fill="#572d68" stroke="#572d68"></path><path d="M666 97L669 0L610 0Z" fill="#ff5722" stroke="#ff5722"></path><path d="M734 600L768 528L716 469Z" fill="#ff3d00" stroke="#ff3d00"></path><path d="M0 507L0 600L132 600Z" fill="#1a2448" stroke="#1a2448"></path><path d="M596 600L734 600L716 469Z" fill="#9f266e" stroke="#9f266e"></path><path d="M762 71L669 0L666 97Z" fill="#081b32" stroke="#081b32"></path><path d="M900 310L825 294L795 399Z" fill="#c02166" stroke="#c02166"></path><path d="M795 399L825 294L733 407Z" fill="#7b2b6f" stroke="#7b2b6f"></path><path d="M788 0L762 71L900 0Z" fill="#c02166" stroke="#c02166"></path><path d="M782 199L762 71L666 97Z" fill="#ff5722" stroke="#ff5722"></path><path d="M91 0L0 0L0 122Z" fill="#ff3d00" stroke="#ff3d00"></path><path d="M734 600L819 600L768 528Z" fill="#7b2b6f" stroke="#7b2b6f"></path><path d="M900 488L900 423L795 399Z" fill="#ff5722" stroke="#ff5722"></path><path d="M900 423L900 310L795 399Z" fill="#7b2b6f" stroke="#7b2b6f"></path><path d="M825 294L900 213L782 199Z" fill="#081b32" stroke="#081b32"></path><path d="M900 488L795 399L768 528Z" fill="#081b32" stroke="#081b32"></path><path d="M900 130L762 71L782 199Z" fill="#f23b41" stroke="#f23b41"></path><path d="M762 71L788 0L669 0Z" fill="#081b32" stroke="#081b32"></path><path d="M900 310L900 213L825 294Z" fill="#ff3d00" stroke="#ff3d00"></path><path d="M819 600L900 488L768 528Z" fill="#00101c" stroke="#00101c"></path><path d="M900 213L900 130L782 199Z" fill="#ff3d00" stroke="#ff3d00"></path><path d="M819 600L900 600L900 488Z" fill="#ff3d00" stroke="#ff3d00"></path><path d="M900 130L900 0L762 71Z" fill="#00101c" stroke="#00101c"></path></g></svg>